<svg width="56" height="30" viewBox="0 0 56 30" fill="none" xmlns="http://www.w3.org/2000/svg">
<path d="M38.951 17.5132C39.2697 17.2862 39.6144 17.0212 39.9359 16.7664C42.4125 14.7846 44.3054 12.6128 44.6788 11.4111C44.6927 11.3722 44.726 11.2619 44.726 11.173C44.726 11.0488 44.6667 10.9617 44.5528 10.9617C43.4178 10.9617 39.7673 14.5946 38.8843 17.5354V17.5475L38.951 17.5132ZM29.8034 17.0953C33.2528 14.4899 36.8756 10.6958 37.2619 9.13833C37.2749 9.08737 37.2869 9.03734 37.2851 8.99009C37.2805 8.88817 37.2249 8.79644 37.0951 8.79644C36.0037 8.79644 30.9476 13.4578 29.8034 17.0953ZM8.62485 19.3857C7.71407 18.7538 6.30575 18.2016 5.04845 18.2016C3.82822 18.2016 3.04716 18.6806 3.04716 19.2847C3.04716 19.9805 3.99499 20.2844 5.05494 20.2844C6.34096 20.2844 7.50745 19.937 8.62485 19.3857ZM19.1919 11.2119C21.6639 10.4188 24.0098 8.76123 25.7591 7.03048C27.3768 5.42852 28.6712 3.52636 28.6712 2.58501C28.6712 2.37005 28.5174 2.24034 28.3228 2.24034C27.5742 2.24034 26.1529 3.23543 24.2424 5.14778C22.7534 6.64134 21.0199 8.67692 19.1919 11.2119ZM56 17.1898C53.8773 19.3033 47.2591 25.1116 45.5071 30L43.3381 29.4413C44.0469 27.4168 46.1816 24.2685 48.5618 21.8382C48.056 22.03 47.5269 22.1004 47.1035 22.1004C46.4605 22.1004 45.9602 21.9068 45.66 21.5417C45.4432 21.2795 45.3338 20.9367 45.3338 20.53C45.3338 20.442 45.3403 20.3521 45.3524 20.2529C43.263 21.5251 41.5814 22.1004 39.9359 22.1004C38.6554 22.1004 37.576 21.5417 37.0794 20.5633C35.004 21.5918 33.0157 22.1004 31.3516 22.1004C29.8034 22.1004 28.5563 21.488 27.9837 20.3697C25.886 21.5492 24.1025 22.1004 22.683 22.1004C21.8658 22.1004 21.2182 21.8734 20.8013 21.4454C20.4955 21.1304 20.3334 20.7042 20.3111 20.2131C18.9658 21.0979 17.0034 22.1004 14.9873 22.1004C12.9286 22.1004 11.5462 21.3926 10.4742 20.693C8.76382 21.639 6.88298 22.1004 4.89372 22.1004C3.38997 22.1004 0.964325 21.4732 0.964325 19.3181C0.964325 17.5771 2.78032 16.3995 5.20874 16.3995C7.2749 16.3995 9.26508 17.2705 10.514 18.1729C11.7 17.2297 12.9443 15.9085 14.411 14.0434C14.0886 14.06 13.7736 14.0693 13.4641 14.0693C10.653 14.0693 8.30612 13.2419 7.02566 11.791C6.33447 11.0081 6.00741 10.0889 6.00741 9.10034C6.00741 5.19133 10.943 2.15881 15.2616 1.71315C15.5479 2.35986 15.8036 2.85833 16.0658 3.45131C11.7991 3.947 8.2459 6.47271 8.2459 8.94005C8.2459 10.5615 10.0702 12.1903 13.9394 12.1903C14.6019 12.1903 15.268 12.1273 15.924 12.0356C19.3392 7.32141 24.575 0 29.0779 0C30.4112 0 31.107 0.809784 31.107 1.89475C31.107 4.12397 29.191 6.52367 27.942 7.77541C25.9787 9.74798 22.4301 12.6814 17.4713 13.6533C15.5423 16.3356 13.957 18.1154 12.3717 19.4005C13.3335 19.9194 14.2331 20.2363 15.3088 20.2363C17.9763 20.2363 20.565 17.793 22.5876 15.7232L22.6589 15.6546L24.2359 16.8869L24.1627 16.9721C23.2686 17.9978 22.4449 19.0809 22.4449 19.6868C22.4449 20.1492 22.8331 20.24 23.1685 20.24C24.1914 20.24 25.7656 19.5794 27.6196 18.4388V18.4231C27.8243 13.8414 34.0756 6.83684 37.8707 6.83684C38.9417 6.83684 39.5579 7.36959 39.5579 8.30538C39.5579 10.6013 35.5951 15.5258 29.833 19.2931V19.2958C30.1314 19.937 30.8179 20.2465 31.9826 20.2465C32.8924 20.2465 34.6686 19.8406 36.7829 18.7362C37.0284 16.3625 38.3728 13.8145 40.0776 11.9985C41.7889 10.1797 43.7068 8.99657 45.3653 8.99657C46.3873 8.99657 46.9914 9.56083 46.9914 10.4438C46.9914 12.446 44.6667 15.8705 39.0659 19.4561C39.3133 19.937 39.795 20.24 40.5428 20.24C42.2105 20.24 45.1494 18.4592 47.4398 16.2698L49.0835 17.5475C48.3812 18.399 47.6715 19.3366 47.6946 19.874C47.7002 20.0482 47.8178 20.164 48.0939 20.164C49.7812 20.164 52.4384 17.9376 54.4305 15.9715L56 17.1898ZM25.4561 12.5952C26.2011 12.5952 26.8033 13.2011 26.8033 13.9442C26.8033 14.6901 26.2011 15.2951 25.4561 15.2951C24.7093 15.2951 24.1053 14.6901 24.1053 13.9442C24.1053 13.2011 24.7093 12.5952 25.4561 12.5952Z" fill="#D52B1E"/>
</svg>
